<svg width="30" height="30" viewBox="0 0 30 30" fill="none" xmlns="http://www.w3.org/2000/svg">
<path d="M12.3529 0C10.4808 0 8.68539 0.743696 7.3616 2.06748C6.03781 3.39127 5.29412 5.18671 5.29412 7.05882C5.29412 8.93094 6.03781 10.7264 7.3616 12.0502C8.68539 13.374 10.4808 14.1176 12.3529 14.1176C14.2251 14.1176 16.0205 13.374 17.3443 12.0502C18.6681 10.7264 19.4118 8.93094 19.4118 7.05882C19.4118 5.18671 18.6681 3.39127 17.3443 2.06748C16.0205 0.743696 14.2251 0 12.3529 0ZM3.54529 15.8824C3.08053 15.8805 2.61998 15.9704 2.19004 16.1469C1.76011 16.3234 1.36924 16.5831 1.03987 16.911C0.710495 17.2389 0.449091 17.6286 0.270646 18.0577C0.0922021 18.4869 0.000228551 18.947 0 19.4118C0 22.3959 1.47 24.6459 3.76765 26.1124C6.03 27.5541 9.07941 28.2353 12.3529 28.2353C13.0765 28.2353 13.7929 28.2018 14.4882 28.1347C13.1028 26.4131 12.3492 24.2687 12.3529 22.0588C12.3529 19.7118 13.1859 17.5588 14.5712 15.8824H3.54706H3.54529ZM20.9559 18.5294C20.9559 18.2369 21.0721 17.9564 21.2789 17.7495C21.4858 17.5427 21.7663 17.4265 22.0588 17.4265C22.3513 17.4265 22.6319 17.5427 22.8387 17.7495C23.0456 17.9564 23.1618 18.2369 23.1618 18.5294C23.1618 18.8219 23.0456 19.1025 22.8387 19.3093C22.6319 19.5162 22.3513 19.6324 22.0588 19.6324C21.7663 19.6324 21.4858 19.5162 21.2789 19.3093C21.0721 19.1025 20.9559 18.8219 20.9559 18.5294ZM22.9412 25.5882C22.9412 25.8223 22.8482 26.0467 22.6827 26.2122C22.5173 26.3776 22.2928 26.4706 22.0588 26.4706C21.8248 26.4706 21.6004 26.3776 21.4349 26.2122C21.2694 26.0467 21.1765 25.8223 21.1765 25.5882V22.0588C21.1765 21.8248 21.2694 21.6004 21.4349 21.4349C21.6004 21.2694 21.8248 21.1765 22.0588 21.1765C22.2928 21.1765 22.5173 21.2694 22.6827 21.4349C22.8482 21.6004 22.9412 21.8248 22.9412 22.0588V25.5882ZM14.1176 22.0588C14.1176 19.9527 14.9543 17.9328 16.4436 16.4436C17.9328 14.9543 19.9527 14.1176 22.0588 14.1176C24.165 14.1176 26.1848 14.9543 27.6741 16.4436C29.1633 17.9328 30 19.9527 30 22.0588C30 24.165 29.1633 26.1848 27.6741 27.6741C26.1848 29.1633 24.165 30 22.0588 30C19.9527 30 17.9328 29.1633 16.4436 27.6741C14.9543 26.1848 14.1176 24.165 14.1176 22.0588ZM15.8824 22.0588C15.8824 22.8699 16.0421 23.6731 16.3525 24.4225C16.6629 25.1718 17.1179 25.8527 17.6914 26.4262C18.2649 26.9998 18.9458 27.4547 19.6952 27.7651C20.4446 28.0755 21.2477 28.2353 22.0588 28.2353C22.8699 28.2353 23.6731 28.0755 24.4225 27.7651C25.1718 27.4547 25.8527 26.9998 26.4262 26.4262C26.9998 25.8527 27.4547 25.1718 27.7651 24.4225C28.0755 23.6731 28.2353 22.8699 28.2353 22.0588C28.2353 20.4207 27.5846 18.8497 26.4262 17.6914C25.2679 16.5331 23.6969 15.8824 22.0588 15.8824C20.4207 15.8824 18.8497 16.5331 17.6914 17.6914C16.5331 18.8497 15.8824 20.4207 15.8824 22.0588Z" fill="#00FF85"/>
</svg>
