<svg width="30" height="349" viewBox="0 0 30 349" fill="none" xmlns="http://www.w3.org/2000/svg">
<path d="M15 0.452994L3.45299 12L15 23.547L26.547 12L15 0.452994ZM13.5858 348.414C14.3668 349.195 15.6332 349.195 16.4142 348.414L29.1421 335.686C29.9232 334.905 29.9232 333.639 29.1421 332.858C28.3611 332.077 27.0948 332.077 26.3137 332.858L15 344.172L3.68629 332.858C2.90524 332.077 1.63891 332.077 0.857864 332.858C0.0768156 333.639 0.0768156 334.905 0.857864 335.686L13.5858 348.414ZM13 12L13 347H17L17 12H13Z" fill="#2BD900"/>
</svg>
