<svg width="111" height="21" viewBox="0 0 111 21" fill="none" xmlns="http://www.w3.org/2000/svg">
<path d="M15.999 8.26557L1.00962 0.821227L0.99038 18.1417L15.9956 11.2656L15.999 8.26557ZM95.0002 12.7622L109.99 20.2065L110.009 2.88603L95.0036 9.76218L95.0002 12.7622ZM10.0816 11.1535L16.1371 11.2683L16.1404 8.26825L10.0849 8.15354L10.0816 11.1535ZM22.1926 11.383L28.2481 11.4977L28.2515 8.49768L22.196 8.38297L22.1926 11.383ZM34.3036 11.6124L40.3592 11.7271L40.3625 8.7271L34.307 8.61239L34.3036 11.6124ZM46.4147 11.8418L52.4702 11.9565L52.4735 8.95652L46.418 8.84181L46.4147 11.8418ZM58.5257 12.0712L64.5812 12.1859L64.5845 9.18594L58.529 9.07123L58.5257 12.0712ZM70.6367 12.3007L76.6922 12.4154L76.6956 9.41537L70.6401 9.30065L70.6367 12.3007ZM82.7477 12.5301L88.8032 12.6448L88.8066 9.64479L82.7511 9.53008L82.7477 12.5301ZM94.8588 12.7595L100.914 12.8742L100.918 9.87421L94.8621 9.7595L94.8588 12.7595Z" fill="#00FF85"/>
</svg>
