<svg width="208" height="225" viewBox="0 0 208 225" fill="none" xmlns="http://www.w3.org/2000/svg">
<rect x="12.5" y="33.4998" width="156" height="144" fill="#00FF85"/>
<rect x="39.5327" y="158.941" width="65" height="12" transform="rotate(-19.2608 39.5327 158.941)" fill="#006666"/>
<rect x="34.6103" y="148.5" width="19" height="12.6029" transform="rotate(34.3453 34.6103 148.5)" fill="#006666"/>
<path d="M76.1364 69.0278L81.9863 128.199L51.5 123.143L76.1364 69.0278Z" fill="#006666"/>
<rect x="19.5" y="36.5" width="124" height="13" fill="black"/>
<path d="M126.448 54.9663L136.422 78.4159L102.864 64.6178L126.448 54.9663Z" fill="white"/>
<path d="M35.0314 56.3347L60.6746 62.1412L27.7915 79.0062L35.0314 56.3347Z" fill="white"/>
<path d="M35.6746 61.1412L41.1746 60.1414L46.6746 61.1412V69.1412L39.1746 70.6414L35.6746 69.1412V61.1412Z" fill="#2BD900"/>
<path d="M114.5 61L120 59.5002L125.5 61V69L121.5 70.0002L114.5 69V61Z" fill="#2BD900"/>
<path d="M160.795 63.6665L174.873 57.764L181.238 60.9556L183.522 110.568L160.069 98.9591L160.795 63.6665Z" fill="#006666"/>
<path d="M89 224.5L165.643 177.25H12.3568L89 224.5Z" fill="#00FF85"/>
<path d="M94.5 0L158 3.5L167.442 33.25H11.5577L94.5 0Z" fill="#006666"/>
</svg>
