<svg width="1438" height="746" viewBox="0 0 1438 746" fill="none" xmlns="http://www.w3.org/2000/svg">
<g opacity="0.1">
<path d="M346.061 733.333L310.638 677.101L346.078 739.459L346.097 745.867C348.624 745.837 351.125 745.74 353.601 745.576L350.712 663.266L350.75 662.63L350.685 662.508L350.41 654.73L387.448 593.099L350.372 648.906L350.261 650.553L348.078 588.365L379.919 524.6L347.829 577.437L346.337 448.538L346.33 448.109L346.325 448.531L345.598 550.159L315.173 509.496L345.625 558.913L345.766 614.575L317.536 560.816L345.782 622.759L345.86 653.71L304.853 578.858L345.892 664.507L346.061 733.333Z" fill="#E2E2E2"/>
<path d="M650.036 733.333L614.613 677.101L650.052 739.459L650.071 745.867C652.598 745.837 655.1 745.74 657.576 745.576L654.687 663.266L654.725 662.63L654.66 662.508L654.385 654.73L691.422 593.099L654.346 648.906L654.235 650.553L652.053 588.365L683.893 524.6L651.804 577.437L650.311 448.538L650.304 448.109L650.299 448.531L649.573 550.159L619.147 509.496L649.6 558.913L649.741 614.575L621.51 560.816L649.756 622.759L649.834 653.71L608.827 578.858L649.867 664.507L650.036 733.333Z" fill="#E2E2E2"/>
<path d="M41.798 736.95L16.2194 696.344L41.8099 741.373L41.8236 746C43.6484 745.979 45.4548 745.909 47.2428 745.79L45.1565 686.354L45.1839 685.895L45.137 685.807L44.9383 680.191L71.683 635.688L44.9107 675.985L44.8306 677.175L43.2546 632.269L66.2465 586.224L43.075 624.378L41.9971 531.301L41.9922 530.991L41.9884 531.295L41.4636 604.681L19.4937 575.318L41.4831 611.002L41.5851 651.195L21.2001 612.376L41.5964 657.104L41.6528 679.454L12.0416 625.404L41.676 687.251L41.798 736.95Z" fill="#E2E2E2"/>
<path d="M1389.33 733.333L1353.91 677.101L1389.35 739.459L1389.37 745.867C1391.89 745.837 1394.39 745.74 1396.87 745.576L1393.98 663.266L1394.02 662.63L1393.95 662.508L1393.68 654.73L1430.72 593.099L1393.64 648.906L1393.53 650.553L1391.35 588.365L1423.19 524.6L1391.1 577.437L1389.61 448.538L1389.6 448.109L1389.59 448.531L1388.87 550.159L1358.44 509.496L1388.89 558.913L1389.03 614.575L1360.8 560.816L1389.05 622.759L1389.13 653.71L1348.12 578.858L1389.16 664.507L1389.33 733.333Z" fill="#E2E2E2"/>
<path d="M428.67 648.434H619.755V640.334H428.67V648.434Z" fill="#6C63FF"/>
<path d="M418.953 640.334H610.039V632.235H418.953V640.334Z" fill="#6C63FF"/>
<path d="M430.289 632.235H621.375V624.135H430.289V632.235Z" fill="#6C63FF"/>
<path d="M449.721 624.135H640.807V616.036H449.721V624.135Z" fill="#6C63FF"/>
<path d="M287.135 627.364H293.77V580.244H287.135V627.364Z" fill="#3F3D56"/>
<path d="M287.121 579.646L289.617 585.796L535.127 486.115L532.632 479.965L287.121 579.646Z" fill="#3F3D56"/>
<path d="M164.397 697.713H222.117V675.148H164.397V697.713Z" fill="#3F3D56"/>
<path d="M169.704 720.277H454.325V695.058H169.704V720.277Z" fill="#006666"/>
<path d="M216.477 707.668H284.813V621.723H233.727L216.477 665.069V707.668Z" fill="#E2E2E2"/>
<path d="M245.006 656.234H274.198V627.032H245.006V656.234Z" fill="white"/>
<path d="M223.112 656.565H241.689V627.365H233.727L223.112 656.565Z" fill="white"/>
<path d="M266.237 685.435H272.871V672.825H266.237V685.435Z" fill="#3F3D56"/>
<path d="M236.049 658.556H235.718C234.046 658.556 232.443 657.892 231.261 656.71C230.079 655.527 229.415 653.924 229.415 652.252C229.415 650.579 230.079 648.976 231.261 647.793C232.443 646.611 234.046 645.947 235.718 645.947H236.049V658.556Z" fill="#3F3D56"/>
<path d="M482.853 707.668H482.522C480.85 707.668 479.247 707.003 478.065 705.821C476.883 704.639 476.219 703.035 476.219 701.363C476.219 699.691 476.883 698.087 478.065 696.905C479.247 695.722 480.85 695.058 482.522 695.058H482.853V707.668V707.668Z" fill="#3F3D56"/>
<path d="M189.94 694.963C185.006 695.026 180.15 696.201 175.732 698.401C171.315 700.6 167.45 703.768 164.426 707.668H151.459L164.065 672.542L222.78 660.958L221.122 707.668H215.454C212.429 703.768 208.564 700.6 204.147 698.401C199.73 696.201 194.874 695.026 189.94 694.963Z" fill="#E2E2E2"/>
<path d="M189.276 744.833C205.215 744.833 218.136 731.907 218.136 715.963C218.136 700.019 205.215 687.094 189.276 687.094C173.337 687.094 160.416 700.019 160.416 715.963C160.416 731.907 173.337 744.833 189.276 744.833Z" fill="#3F3D56"/>
<path d="M189.276 731.158C197.665 731.158 204.466 724.355 204.466 715.963C204.466 707.572 197.665 700.769 189.276 700.769C180.887 700.769 174.087 707.572 174.087 715.963C174.087 724.355 180.887 731.158 189.276 731.158Z" fill="#E2E2E2"/>
<path d="M450.012 744.501C463.936 744.501 475.224 733.21 475.224 719.282C475.224 705.353 463.936 694.062 450.012 694.062C436.089 694.062 424.801 705.353 424.801 719.282C424.801 733.21 436.089 744.501 450.012 744.501Z" fill="#3F3D56"/>
<path d="M450.012 732.555C457.341 732.555 463.281 726.612 463.281 719.282C463.281 711.951 457.341 706.008 450.012 706.008C442.684 706.008 436.743 711.951 436.743 719.282C436.743 726.612 442.684 732.555 450.012 732.555Z" fill="#E2E2E2"/>
<path d="M282.823 710.322H296.755V609.777H282.823V710.322Z" fill="#3F3D56"/>
<path d="M282.823 698.044H483.185V692.071H282.823V698.044Z" fill="#3F3D56"/>
<path d="M232.069 660.547H238.703V657.893H232.069V660.547Z" fill="#3F3D56"/>
<path d="M525.314 648.384C525.251 648.315 525.204 648.233 525.175 648.144C525.145 648.055 525.136 647.961 525.145 647.868L534.295 561.314C534.313 561.152 534.389 561.001 534.51 560.892C534.631 560.782 534.789 560.721 534.952 560.72H534.955C535.118 560.72 535.275 560.78 535.397 560.889C535.518 560.997 535.596 561.147 535.614 561.308L545.51 647.683C545.521 647.775 545.512 647.869 545.484 647.958C545.456 648.046 545.41 648.128 545.348 648.198C545.287 648.268 545.211 648.324 545.127 648.362C545.042 648.401 544.95 648.421 544.857 648.422L525.811 648.602H525.805C525.713 648.602 525.621 648.582 525.537 648.545C525.452 648.507 525.376 648.453 525.314 648.384ZM534.982 567.444L526.543 647.267L544.108 647.102L534.982 567.444Z" fill="#3F3D56"/>
<path d="M164.187 673.055L164.497 673.172C166.061 673.763 167.325 674.952 168.013 676.476C168.7 678.001 168.754 679.735 168.163 681.299C167.572 682.863 166.383 684.128 164.86 684.816C163.336 685.504 161.602 685.558 160.038 684.966L159.728 684.849L164.187 673.055Z" fill="#3F3D56"/>
<path d="M531.949 576.926H538.583V480.031H531.949V576.926Z" fill="#3F3D56"/>
<path d="M290.452 590.863C295.582 590.863 299.741 586.703 299.741 581.572C299.741 576.44 295.582 572.28 290.452 572.28C285.323 572.28 281.164 576.44 281.164 581.572C281.164 586.703 285.323 590.863 290.452 590.863Z" fill="#3F3D56"/>
<path d="M303.978 692.171H495.064V684.071H303.978V692.171Z" fill="#6C63FF"/>
<path d="M315.314 684.071H506.399V675.972H315.314V684.071Z" fill="#6C63FF"/>
<path d="M307.217 677.592H498.303V669.492H307.217V677.592Z" fill="#6C63FF"/>
<path d="M318.553 669.492H509.638V661.393H318.553V669.492Z" fill="#6C63FF"/>
<path d="M619.145 198.019C625.235 198.012 631.122 200.206 635.722 204.197C639.357 203.204 643.167 203.037 646.875 203.707C649.944 199.251 654.358 195.894 659.47 194.126C664.583 192.358 670.127 192.271 675.292 193.879C680.458 195.487 684.973 198.706 688.18 203.064C691.387 207.422 693.116 212.692 693.116 218.103H594.339C595.55 212.42 598.674 207.325 603.189 203.67C607.704 200.014 613.337 198.019 619.145 198.019Z" fill="#E2E2E2"/>
<path d="M470.543 277.957C476.3 277.95 481.865 280.025 486.214 283.798C489.651 282.859 493.253 282.701 496.758 283.335C499.66 279.122 503.833 275.948 508.666 274.277C513.5 272.605 518.741 272.523 523.624 274.044C528.507 275.564 532.777 278.606 535.808 282.727C538.84 286.847 540.475 291.829 540.474 296.945H447.091C448.236 291.572 451.19 286.756 455.458 283.3C459.726 279.844 465.051 277.958 470.543 277.957Z" fill="#E2E2E2"/>
<path d="M321.97 146.111C327.96 146.104 333.751 148.262 338.276 152.188C341.851 151.212 345.599 151.047 349.246 151.706C352.266 147.323 356.607 144.021 361.636 142.282C366.665 140.542 372.118 140.458 377.199 142.039C382.28 143.621 386.722 146.787 389.876 151.074C393.031 155.36 394.732 160.544 394.731 165.867H297.569C298.761 160.277 301.834 155.266 306.275 151.67C310.716 148.074 316.256 146.112 321.97 146.111Z" fill="#E2E2E2"/>
<path d="M974.711 397.173V599.507H1053.37V394.363L1035.11 395.015V353.615H1021.87L1019.68 261.923C1025.03 258.44 1028.79 250.166 1028.79 240.505C1028.8 237.732 1028.47 234.967 1027.83 232.27C1030.36 229.532 1031.91 226.032 1032.24 222.319C1032.56 218.606 1031.65 214.889 1029.64 211.749C1031.32 213.219 1033.28 214.339 1035.4 215.046C1037.51 215.753 1039.75 216.032 1041.98 215.868C1044.2 215.703 1046.37 215.098 1048.36 214.087C1050.35 213.076 1052.12 211.68 1053.57 209.98C1055.01 208.279 1056.11 206.308 1056.79 204.182C1057.47 202.055 1057.72 199.814 1057.52 197.59C1057.33 195.366 1056.69 193.202 1055.66 191.225C1054.62 189.248 1053.2 187.496 1051.48 186.072C1054.37 185.005 1056.92 183.166 1058.83 180.755C1060.75 178.345 1061.98 175.454 1062.37 172.398C1062.76 169.341 1062.31 166.235 1061.06 163.418C1059.81 160.601 1057.81 158.18 1055.29 156.418C1052.76 154.656 1049.8 153.62 1046.72 153.424C1043.65 153.227 1040.58 153.877 1037.85 155.303C1035.12 156.729 1032.83 158.876 1031.23 161.511C1029.63 164.146 1028.79 167.169 1028.79 170.25C1028.79 170.497 1028.8 170.742 1028.81 170.986C1026.49 170.279 1024.05 170.078 1021.66 170.398C1019.26 170.717 1016.95 171.549 1014.91 172.837C1012.86 174.125 1011.11 175.839 1009.78 177.863C1008.45 179.887 1007.58 182.172 1007.21 184.565C1005.11 183.314 1002.76 182.536 1000.33 182.284C997.892 182.032 995.433 182.313 993.12 183.107C990.806 183.901 988.693 185.189 986.927 186.882C985.161 188.575 983.785 190.632 982.894 192.911C982.002 195.189 981.617 197.635 981.765 200.077C981.913 202.519 982.591 204.9 983.751 207.054C984.912 209.208 986.527 211.083 988.484 212.55C990.442 214.017 992.695 215.041 995.088 215.549C995.084 215.672 995.078 215.793 995.078 215.916C996.644 220.642 998.636 225.215 1001.03 229.579C999.86 233.102 999.273 236.793 999.293 240.505C999.293 250.166 1003.05 258.44 1008.4 261.923L1006.22 353.615H992.972V396.521L974.711 397.173ZM1023.83 203.972L1023.87 203.973C1024.12 203.973 1024.36 203.965 1024.6 203.954C1024.75 204.453 1024.92 204.941 1025.12 205.418C1024.72 204.912 1024.29 204.429 1023.83 203.972Z" fill="#E2E2E2"/>
<path d="M931.401 743.529H1170.19V467.194L931.401 467.194V743.529Z" fill="#006666"/>
<path d="M1018.61 743.529H1082.99V687.325H1018.61V743.529Z" fill="#E2E2E2"/>
<path d="M851.82 103.6C851.815 103.804 851.805 104.006 851.805 104.211C851.801 107.969 852.553 111.69 854.016 115.151C855.48 118.612 857.624 121.743 860.322 124.358C860.744 125.258 861.213 126.134 861.727 126.983C859.774 132.854 858.795 139.005 858.828 145.193C858.828 166.533 869.833 183.833 883.409 183.833C896.985 183.833 907.99 166.533 907.99 145.193C908.001 140.57 907.463 135.963 906.388 131.467C910.604 126.904 913.187 121.072 913.734 114.883C914.281 108.694 912.761 102.499 909.411 97.2669C912.212 99.7151 915.472 101.583 919 102.761C922.529 103.939 926.256 104.404 929.965 104.129C933.675 103.855 937.293 102.846 940.61 101.162C943.926 99.4769 946.876 97.1502 949.286 94.3162C951.697 91.4823 953.52 88.1977 954.652 84.653C955.783 81.1083 956.199 77.3741 955.876 73.6673C955.553 69.9604 954.497 66.3546 952.769 63.0593C951.042 59.7639 948.677 56.8446 945.813 54.4708C950.63 52.6927 954.867 49.6282 958.065 45.6102C961.263 41.5922 963.3 36.7744 963.953 31.6801C964.606 26.5859 963.851 21.41 961.771 16.7146C959.69 12.0193 956.363 7.98413 952.15 5.04745C947.938 2.11076 943.002 0.384873 937.878 0.057248C932.754 -0.270377 927.638 0.812797 923.087 3.18911C918.535 5.56542 914.721 9.14399 912.06 13.5361C909.398 17.9282 907.991 22.9659 907.99 28.1019C907.99 28.5133 908.004 28.9215 908.021 29.3286C904.164 28.1499 900.098 27.8154 896.1 28.3476C892.102 28.8799 888.266 30.2665 884.851 32.4133C881.436 34.5601 878.523 37.4169 876.309 40.7896C874.096 44.1622 872.634 47.9719 872.023 51.9598C868.519 49.8747 864.604 48.5772 860.549 48.1575C856.494 47.7378 852.396 48.2059 848.54 49.5294C844.684 50.8528 841.163 52.9999 838.219 55.8215C835.276 58.6431 832.982 62.0717 831.496 65.8692C830.011 69.6667 829.369 73.7422 829.616 77.8126C829.863 81.8831 830.992 85.851 832.926 89.441C834.86 93.031 837.551 96.1569 840.814 98.6019C844.077 101.047 847.832 102.752 851.82 103.6ZM899.797 84.3056C900.202 84.3056 900.604 84.292 901.005 84.275C901.257 85.1056 901.547 85.9188 901.873 86.7146C901.203 85.8705 900.486 85.0656 899.724 84.3038L899.797 84.3056Z" fill="#E2E2E2"/>
<path d="M869.359 375.863H897.455L896.451 333.713V333.697L892.775 179.143C889.954 180.868 886.712 181.78 883.407 181.78C880.101 181.78 876.86 180.868 874.039 179.143L870.363 333.697V333.713L869.359 375.863Z" fill="#00FF85"/>
<path d="M817.863 406.3V743.529H948.952V401.619L918.523 402.704V333.713H848.291V405.215L817.863 406.3Z" fill="#00FF85"/>
<path d="M1186.59 103.6C1186.59 103.804 1186.58 104.006 1186.58 104.211C1186.57 107.969 1187.33 111.69 1188.79 115.151C1190.25 118.612 1192.4 121.743 1195.1 124.358C1195.52 125.258 1195.99 126.134 1196.5 126.983C1194.55 132.854 1193.57 139.005 1193.6 145.193C1193.6 166.533 1204.61 183.833 1218.18 183.833C1231.76 183.833 1242.76 166.533 1242.76 145.193C1242.77 140.57 1242.24 135.963 1241.16 131.467C1245.38 126.904 1247.96 121.072 1248.51 114.883C1249.05 108.694 1247.53 102.499 1244.18 97.2669C1246.99 99.7152 1250.25 101.583 1253.77 102.761C1257.3 103.939 1261.03 104.404 1264.74 104.13C1268.45 103.855 1272.07 102.846 1275.38 101.162C1278.7 99.4772 1281.65 97.1504 1284.06 94.3165C1286.47 91.4825 1288.29 88.1978 1289.43 84.6531C1290.56 81.1084 1290.97 77.3742 1290.65 73.6673C1290.33 69.9604 1289.27 66.3546 1287.54 63.0593C1285.82 59.7639 1283.45 56.8446 1280.59 54.4708C1285.4 52.6927 1289.64 49.6282 1292.84 45.6102C1296.04 41.5922 1298.07 36.7744 1298.73 31.6802C1299.38 26.5859 1298.62 21.41 1296.54 16.7146C1294.46 12.0193 1291.14 7.98413 1286.92 5.04745C1282.71 2.11076 1277.78 0.384874 1272.65 0.0572482C1267.53 -0.270377 1262.41 0.812796 1257.86 3.18911C1253.31 5.56542 1249.49 9.14399 1246.83 13.5361C1244.17 17.9282 1242.76 22.9659 1242.76 28.1019C1242.76 28.5133 1242.78 28.9215 1242.79 29.3286C1238.94 28.1499 1234.87 27.8154 1230.87 28.3476C1226.88 28.8799 1223.04 30.2665 1219.62 32.4133C1216.21 34.5601 1213.3 37.4169 1211.08 40.7896C1208.87 44.1622 1207.41 47.9719 1206.8 51.9598C1203.29 49.8747 1199.38 48.5772 1195.32 48.1575C1191.27 47.7378 1187.17 48.2059 1183.31 49.5294C1179.46 50.8528 1175.94 52.9999 1172.99 55.8215C1170.05 58.6431 1167.76 62.0717 1166.27 65.8692C1164.78 69.6667 1164.14 73.7422 1164.39 77.8126C1164.64 81.8831 1165.77 85.851 1167.7 89.441C1169.63 93.031 1172.32 96.1569 1175.59 98.6019C1178.85 101.047 1182.61 102.752 1186.59 103.6ZM1234.57 84.3056C1234.98 84.3056 1235.38 84.292 1235.78 84.275C1236.03 85.1056 1236.32 85.9188 1236.65 86.7146C1235.98 85.8705 1235.26 85.0656 1234.5 84.3038L1234.57 84.3056Z" fill="#E2E2E2"/>
<path d="M1204.14 375.863H1232.23L1227.55 179.149C1221.49 181.325 1214.87 181.325 1208.82 179.149L1204.14 375.863Z" fill="#00FF85"/>
<path d="M1152.63 406.3V743.529H1283.74V401.619L1272.97 402.008L1253.29 402.704V333.713H1183.06V405.215L1152.63 406.3Z" fill="#00FF85"/>
<path d="M1086.42 532.943H1118.81V500.545H1086.42V532.943Z" fill="white"/>
<path d="M1034.6 532.943H1066.99V500.545H1034.6V532.943Z" fill="white"/>
<path d="M982.782 532.943H1015.17V500.545H982.782V532.943Z" fill="white"/>
<path d="M1086.42 584.78H1118.81V552.382H1086.42V584.78Z" fill="white"/>
<path d="M1034.6 584.78H1066.99V552.382H1034.6V584.78Z" fill="white"/>
<path d="M982.782 584.78H1015.17V552.382H982.782V584.78Z" fill="white"/>
<path d="M1086.42 636.616H1118.81V604.218H1086.42V636.616Z" fill="white"/>
<path d="M1034.6 636.616H1066.99V604.218H1034.6V636.616Z" fill="white"/>
<path d="M982.782 636.616H1015.17V604.218H982.782V636.616Z" fill="white"/>
<path d="M867.215 519.984H899.603V487.586H867.215V519.984Z" fill="white"/>
<path d="M867.215 571.82H899.603V539.423H867.215V571.82Z" fill="white"/>
<path d="M867.215 623.657H899.603V591.259H867.215V623.657Z" fill="white"/>
<path d="M867.215 675.493H899.603V643.096H867.215V675.493Z" fill="white"/>
<path d="M1201.72 519.984H1234.11V487.586H1201.72V519.984Z" fill="white"/>
<path d="M1201.72 571.82H1234.11V539.423H1201.72V571.82Z" fill="white"/>
<path d="M1201.72 623.657H1234.11V591.259H1201.72V623.657Z" fill="white"/>
<path d="M1201.72 675.493H1234.11V643.096H1201.72V675.493Z" fill="white"/>
</g>
</svg>
