<svg width="116" height="157" viewBox="0 0 116 157" fill="none" xmlns="http://www.w3.org/2000/svg">
<rect x="4.00281" y="2.48141" width="13.2012" height="43.3646" transform="rotate(0.902196 4.00281 2.48141)" fill="#006666"/>
<rect x="22.4999" y="4.5" width="14" height="43" fill="#006666"/>
<rect x="46.5" y="1.5" width="15" height="43" fill="#006666"/>
<rect x="73.7979" y="0.481049" width="11.7001" height="43.3646" transform="rotate(2.52906 73.7979 0.481049)" fill="#006666"/>
<rect x="92.9268" y="101.5" width="21.053" height="43.3646" transform="rotate(22.2598 92.9268 101.5)" fill="#006666"/>
<rect x="98.455" y="77.5" width="17.6597" height="29.771" transform="rotate(7.63418 98.455 77.5)" fill="#006666"/>
<rect x="3.5" y="44.4842" width="14.6409" height="43.3646" transform="rotate(-3.85454 3.5 44.4842)" fill="#006666"/>
<rect x="22.1925" y="43.2151" width="15.9492" height="43.3646" transform="rotate(-4.39745 22.1925 43.2151)" fill="#006666"/>
<rect x="45.6816" y="42.9069" width="15.9149" height="43.3646" transform="rotate(-2.69874 45.6816 42.9069)" fill="#006666"/>
<rect x="69.7981" y="43.2376" width="15.8691" height="43.3646" transform="rotate(3.64081 69.7981 43.2376)" fill="#006666"/>
<path d="M4.1239 85.6155H83.6257V121.5L95.5 148.5L83.6257 156.083H4.1239L0 121.5L4.1239 85.6155Z" fill="#006666"/>
</svg>
