<svg width="56" height="60" viewBox="0 0 56 60" fill="none" xmlns="http://www.w3.org/2000/svg">
<path d="M56 8.57038V4.28519C56 3.14869 55.5462 2.05873 54.7383 1.2551C53.9305 0.451474 52.8348 0 51.6923 0H4.30769C3.16522 0 2.06954 0.451474 1.26169 1.2551C0.453845 2.05873 0 3.14869 0 4.28519V8.57038C0 9.70688 0.453845 10.7968 1.26169 11.6005C2.06954 12.4041 3.16522 12.8556 4.30769 12.8556V38.5667H2.15385C1.58261 38.5667 1.03477 38.7924 0.630847 39.1943C0.226922 39.5961 0 40.1411 0 40.7093C0 41.2776 0.226922 41.8225 0.630847 42.2243C1.03477 42.6262 1.58261 42.8519 2.15385 42.8519H25.8462V47.512C24.4091 48.0175 23.1979 49.012 22.4266 50.3199C21.6554 51.6277 21.3738 53.1647 21.6315 54.6592C21.8893 56.1536 22.6698 57.5093 23.8352 58.4866C25.0006 59.464 26.4758 60 28 60C29.5243 60 30.9994 59.464 32.1648 58.4866C33.3302 57.5093 34.1107 56.1536 34.3685 54.6592C34.6262 53.1647 34.3446 51.6277 33.5734 50.3199C32.8021 49.012 31.5909 48.0175 30.1538 47.512V42.8519H53.8462C54.4174 42.8519 54.9652 42.6262 55.3692 42.2243C55.7731 41.8225 56 41.2776 56 40.7093C56 40.1411 55.7731 39.5961 55.3692 39.1943C54.9652 38.7924 54.4174 38.5667 53.8462 38.5667H51.6923V12.8556C52.8348 12.8556 53.9305 12.4041 54.7383 11.6005C55.5462 10.7968 56 9.70688 56 8.57038ZM21.5385 29.9963C21.5385 30.5646 21.3115 31.1096 20.9076 31.5114C20.5037 31.9132 19.9559 32.1389 19.3846 32.1389C18.8134 32.1389 18.2655 31.9132 17.8616 31.5114C17.4577 31.1096 17.2308 30.5646 17.2308 29.9963V25.7111C17.2308 25.1429 17.4577 24.5979 17.8616 24.1961C18.2655 23.7943 18.8134 23.5685 19.3846 23.5685C19.9559 23.5685 20.5037 23.7943 20.9076 24.1961C21.3115 24.5979 21.5385 25.1429 21.5385 25.7111V29.9963ZM28 55.7075C27.574 55.7075 27.1576 55.5818 26.8034 55.3464C26.4492 55.111 26.1731 54.7763 26.0101 54.3848C25.8471 53.9933 25.8044 53.5625 25.8875 53.1469C25.9706 52.7313 26.1758 52.3495 26.477 52.0498C26.7782 51.7502 27.162 51.5461 27.5798 51.4635C27.9976 51.3808 28.4307 51.4232 28.8242 51.5854C29.2178 51.7475 29.5542 52.0222 29.7909 52.3745C30.0275 52.7269 30.1538 53.1411 30.1538 53.5649C30.1538 54.1331 29.9269 54.6781 29.523 55.0799C29.1191 55.4817 28.5712 55.7075 28 55.7075ZM30.1538 29.9963C30.1538 30.5646 29.9269 31.1096 29.523 31.5114C29.1191 31.9132 28.5712 32.1389 28 32.1389C27.4288 32.1389 26.8809 31.9132 26.477 31.5114C26.0731 31.1096 25.8462 30.5646 25.8462 29.9963V23.5685C25.8462 23.0003 26.0731 22.4553 26.477 22.0535C26.8809 21.6517 27.4288 21.426 28 21.426C28.5712 21.426 29.1191 21.6517 29.523 22.0535C29.9269 22.4553 30.1538 23.0003 30.1538 23.5685V29.9963ZM38.7692 29.9963C38.7692 30.5646 38.5423 31.1096 38.1384 31.5114C37.7345 31.9132 37.1866 32.1389 36.6154 32.1389C36.0442 32.1389 35.4963 31.9132 35.0924 31.5114C34.6885 31.1096 34.4615 30.5646 34.4615 29.9963V21.426C34.4615 20.8577 34.6885 20.3127 35.0924 19.9109C35.4963 19.5091 36.0442 19.2834 36.6154 19.2834C37.1866 19.2834 37.7345 19.5091 38.1384 19.9109C38.5423 20.3127 38.7692 20.8577 38.7692 21.426V29.9963ZM4.30769 8.57038V4.28519H51.6923V8.57038H4.30769Z" fill="#00FF85"/>
</svg>
